<?xml version="1.0" encoding="utf-8"?>
<!-- Generator: Adobe Illustrator 19.0.0, SVG Export Plug-In . SVG Version: 6.00 Build 0)  -->
<svg version="1.1" id="Layer_1" xmlns="http://www.w3.org/2000/svg" xmlns:xlink="http://www.w3.org/1999/xlink" x="0px" y="0px"
	 viewBox="0 0 600 80" style="enable-background:new 0 0 600 80;" xml:space="preserve">
<style type="text/css">
	.st0{fill-rule:evenodd;clip-rule:evenodd;fill:#28ABE3;}
</style>
<path class="st0" d="M355.4,40.4L355.4,40.4c0,21.5-12.7,26.2-28.4,26.2c-15.6,0-28.4-4.5-28.4-26.1l0-0.1l0,0V14.8h7.7v25.5v0.1
	c0,4.3,0.6,8,1.7,10.7c0.9,2.1,2.1,3.8,3.7,5c1.6,1.1,3.5,2,6,2.5c2.6,0.6,5.6,0.8,9.3,0.8c3.7,0,6.8-0.2,9.3-0.8
	c2.5-0.6,4.4-1.4,6.1-2.6c1.6-1.2,2.8-2.8,3.7-5c1.2-2.7,1.7-6.3,1.7-10.6v-0.1h0V14.8h7.7V40.4L355.4,40.4L355.4,40.4z M175,30.1
	c0.1-1.8,0.4-3.3,1-4.4c0.6-1,1.5-1.8,2.7-2.4c6.2-3.3,22.1-1.3,29.3-1.3v-7.1c-14-0.3-40.4-4.5-40.4,15.6v6.2v7v5.4
	c0,20.1,26.4,16,40.4,15.7v-7.1c-7.3,0-23.1,2-29.3-1.3c-1.2-0.6-2.1-1.4-2.7-2.4c-0.6-1.1-0.9-2.6-1-4.4v-5.9h24.2v-0.1v-6.8v-0.1
	H175V30.1L175,30.1z M258.1,30.1c0.1-1.8,0.4-3.3,1-4.4c0.6-1,1.5-1.8,2.7-2.4C268,20,283.9,22,291.1,22v-7.1
	c-14-0.3-40.4-4.5-40.4,15.6v34.7h7.4V43.8h24.2v-7h-24.2V30.1L258.1,30.1z M556,30.1c0.1-1.8,0.4-3.3,1-4.4c0.6-1,1.5-1.8,2.7-2.4
	C565.9,20,581.8,22,589,22v-7.1c-14-0.3-40.4-4.5-40.4,15.6v6.2v7v5.4c0,20.1,26.4,16,40.4,15.7v-7.1c-7.3,0-23.1,2-29.3-1.3
	c-1.2-0.6-2.1-1.4-2.7-2.4c-0.6-1.1-0.9-2.6-1-4.4v-5.9h24.2v-0.1v-6.8v-0.1H556V30.1L556,30.1z M18,30.1c0.1-1.8,0.4-3.3,1-4.4
	c0.6-1,1.5-1.8,2.7-2.4C28,20,43.8,22,51.1,22v-7.1c-14-0.3-40.4-4.5-40.4,15.6v34.7H18V47.1h24.2v-7H18V30.1L18,30.1z M479.6,40.4
	L479.6,40.4c0,21.5-12.7,26.2-28.4,26.2c-15.6,0-28.4-4.5-28.4-26.1v-0.1l0,0V14.8h7.7v25.5v0.1c0,4.3,0.6,8,1.7,10.7
	c0.9,2.1,2.1,3.8,3.7,5c1.6,1.1,3.5,2,6.1,2.5c2.6,0.6,5.6,0.8,9.3,0.8c3.7,0,6.8-0.2,9.3-0.8c2.5-0.6,4.4-1.4,6.1-2.6
	c1.6-1.2,2.8-2.8,3.7-5c1.2-2.7,1.7-6.3,1.7-10.6v-0.1h0V14.8h7.7V40.4L479.6,40.4L479.6,40.4z M496.3,30.5c0.1-1.8,0.4-3.3,1-4.4
	c0.6-1,1.5-1.8,2.7-2.4c3-1.6,7.6-2.3,14.5-2.3c3.5,0,6.5,0.1,8.9,0.5c2.5,0.4,4.5,1,6.1,1.8c1.3,0.7,2.1,1.4,2.7,2.4
	c0.7,1.2,1,2.8,1,4.8c0,2-0.3,3.6-1,4.7c-0.6,1-1.4,1.8-2.7,2.4c-1.5,0.8-3.5,1.4-6.1,1.8c-2.4,0.4-5.3,0.6-8.9,0.6l-18.3,0V30.5
	L496.3,30.5z M535.9,54.6c-1.9-4.2-3.7-7.3-6.6-8.9c6.6-2.2,10.9-6.6,10.9-14.8c0-13.7-11.5-16.6-25.7-16.6
	c-14.1,0-25.6,2.8-25.6,16.6v34.7h7.4V47.5h20.4c5.2,0.4,8.8,2.6,11.5,8c2.5,4.9,2.9,8.5,4.9,10.2h8.8
	C538.7,62.5,537.5,58.2,535.9,54.6L535.9,54.6L535.9,54.6z M414.3,14.8h-50.7v6.6h21.6v43.9h7.6V21.4h21.6V14.8L414.3,14.8z M109,40
	v25.2h7.4v-22c6,0,17.3-0.1,20.9,0c13,0.4,11.1,17.8,15.9,21.9h8.8c-5.2-5.2-6.1-21.8-13.4-25.2c7.3-3.4,8.2-20,13.4-25.2h-8.8
	c-4.8,4.1-2.9,21.5-15.9,21.9c-3.6,0.1-14.9,0.1-20.9,0.1v-22H109V40L109,40z M62.3,43.4c4.1-10.2,8.3-20.3,8.6-21
	c0.5-1.3,1.6-1.9,2.8-1.9c1.3,0,2.3,0.7,2.8,1.8c0.2,0.6,4.3,10.8,8.6,21.1H62.3L62.3,43.4z M94.1,65.2L94.1,65.2
	c0,0-2.9-7.2-6.4-15.6H59.8c-3.4,8.5-6.4,15.6-6.4,15.6h-7.6c0,0,18.1-43.7,18.6-44.9c0.5-1.2,2.6-6.4,9.3-6.4
	c6.7,0,9.3,6.1,9.9,7.4c0.5,1.3,18.2,43.9,18.2,43.9H94.1z"/>
</svg>
